# https://github.com/mikedh/trimesh
mtllib material.mtl
usemtl material_0
v 0.07141822 0.45536099 0.14851291
v 0.10908633 0.45536099 0.14851291
v 0.10908633 0.45682026 0.12598973
v 0.07141822 0.45679506 0.12598763
v -0.25570638 0.47202608 0.20849212
v 0.25570638 0.47202608 0.20849212
v 0.15699453 0.47276726 0.19296715
v 0.02352262 0.47276726 0.19296715
v 0.25570638 0.47202608 0.20849212
v 0.25570638 0.48657680 -0.09447366
v 0.15699453 0.48059064 0.03076334
v 0.15699453 0.48059064 0.03076334
v 0.15699453 0.47276726 0.19296715
v 0.25570638 0.47202608 0.20849212
v 0.25570638 0.48657680 -0.09447366
v 0.25570638 0.49284852 -0.22556875
v 0.15699453 0.48059064 0.03076334
v 0.25570638 0.49284852 -0.22556875
v -0.25570638 0.49284852 -0.22556875
v 0.02352262 0.48054654 0.03076124
v 0.02352262 0.48054654 0.03076124
v 0.15699453 0.48059064 0.03076334
v 0.25570638 0.49284852 -0.22556875
v -0.25570638 0.49284852 -0.22556875
v -0.25570638 0.48657680 -0.09447366
v 0.02352262 0.48054654 0.03076124
v -0.25570638 0.48657680 -0.09447366
v -0.25570638 0.47202608 0.20849212
v 0.02352262 0.47276726 0.19296715
v 0.02352262 0.47276726 0.19296715
v 0.02352262 0.48054654 0.03076124
v -0.25570638 0.48657680 -0.09447366
v 0.02352262 0.47276726 0.19296715
v 0.02352262 0.47276726 0.19296715
v 0.15699453 0.47276726 0.19296715
v 0.12549736 0.44584947 0.15918974
v 0.12549736 0.44584947 0.15918974
v 0.05501559 0.44584108 0.15918974
v 0.15699453 0.47276726 0.19296715
v 0.15699453 0.48059064 0.03076334
v 0.12549526 0.44878691 0.11369826
v 0.12549736 0.44584947 0.15918974
v 0.15699453 0.48059064 0.03076334
v 0.02352262 0.48054654 0.03076124
v 0.05501559 0.44874912 0.11369616
v 0.12549526 0.44878691 0.11369826
v 0.02352262 0.48054654 0.03076124
v 0.02352262 0.47276726 0.19296715
v 0.05501559 0.44584108 0.15918974
v 0.05501559 0.44874912 0.11369616
v 0.05501559 0.44584108 0.15918974
v 0.05501559 0.44584108 0.15918974
v 0.12549736 0.44584947 0.15918974
v 0.11286994 0.44634080 0.15147764
v 0.11286994 0.44634080 0.15147764
v 0.11286994 0.44634080 0.15147764
v 0.06764301 0.44634080 0.15147764
v 0.11286994 0.44828719 0.12141035
v 0.06764301 0.44825780 0.12140825
v 0.06764301 0.44634080 0.15147764
v 0.11286994 0.44634080 0.15147764
v 0.11286784 0.45092858 0.15201516
v 0.06764091 0.45092858 0.15201516
v 0.11286994 0.44634080 0.15147764
v 0.11286994 0.44828719 0.12141035
v 0.11286574 0.45287498 0.12194787
v 0.11286784 0.45092858 0.15201516
v 0.11286994 0.44828719 0.12141035
v 0.06764301 0.44825780 0.12140825
v 0.06764091 0.45284558 0.12194787
v 0.11286574 0.45287498 0.12194787
v 0.06764301 0.44825780 0.12140825
v 0.06764301 0.44634080 0.15147764
v 0.06764091 0.45092858 0.15201516
v 0.06764091 0.45284558 0.12194787
v 0.06764091 0.45092858 0.15201516
v 0.11286784 0.45092858 0.15201516
v 0.10908843 0.45117004 0.14824415
v 0.07142032 0.45117004 0.14824415
v 0.11286574 0.45287498 0.12194787
v 0.10908843 0.45263141 0.12572097
v 0.06764091 0.45284558 0.12194787
v 0.07142032 0.45260412 0.12571887
v 0.07142032 0.45117004 0.14824415
v 0.10908843 0.45117004 0.14824415
v 0.10908633 0.45536099 0.14851291
v 0.07141822 0.45536099 0.14851291
v 0.10908843 0.45117004 0.14824415
v 0.10908843 0.45263141 0.12572097
v 0.10908633 0.45682026 0.12598973
v 0.10908633 0.45536099 0.14851291
v 0.10908843 0.45263141 0.12572097
v 0.07142032 0.45260412 0.12571887
v 0.07141822 0.45679506 0.12598763
v 0.10908633 0.45682026 0.12598973
v 0.07142032 0.45260412 0.12571887
v 0.07142032 0.45117004 0.14824415
v 0.07141822 0.45536099 0.14851291
v 0.07141822 0.45679506 0.12598763
vn -0.00039998 0.99795641 0.06389721
vn 0.00000000 0.99790474 0.06470031
vn -0.00020001 0.99793047 0.06430196
vn -0.00069999 0.99798167 0.06349883
vn 0.00000000 0.99886179 0.04769818
vn 0.00000000 0.99886179 0.04769818
vn 0.00000000 0.99886179 0.04769818
vn 0.00000000 0.99886179 0.04769818
vn 0.00030001 0.99884718 0.04800227
vn 0.00030001 0.99884718 0.04800227
vn 0.00030001 0.99884718 0.04800227
vn -0.00010000 0.99883761 0.04820182
vn -0.00010000 0.99883761 0.04820182
vn -0.00010000 0.99883761 0.04820182
vn 0.00000000 0.99885703 0.04779794
vn 0.00000000 0.99885703 0.04779794
vn 0.00000000 0.99885703 0.04779794
vn 0.00000000 0.99885225 0.04789771
vn 0.00000000 0.99885225 0.04789771
vn 0.00000000 0.99885225 0.04789771
vn -0.00029999 0.99886651 0.04759840
vn -0.00029999 0.99886651 0.04759840
vn -0.00029999 0.99886651 0.04759840
vn 0.00010000 0.99885702 0.04779794
vn 0.00010000 0.99885702 0.04779794
vn 0.00010000 0.99885702 0.04779794
vn 0.00000000 0.99884723 0.04800227
vn 0.00000000 0.99884723 0.04800227
vn 0.00000000 0.99884723 0.04800227
vn 0.00010000 0.99885224 0.04789771
vn 0.00010000 0.99885224 0.04789771
vn 0.00010000 0.99885224 0.04789771
vn 0.00000000 0.78203823 -0.62323046
vn -0.00010000 0.78190188 -0.62340150
vn 0.00000000 0.78203823 -0.62323046
vn -0.00010000 0.78190188 -0.62340150
vn 0.00000000 0.78203823 -0.62323046
vn -0.00010000 0.78190188 -0.62340150
vn -0.66900699 0.74210776 0.04130043
vn -0.66132594 0.74922939 0.03610142
vn -0.66450559 0.74630628 0.03820032
vn -0.67780837 0.73370907 0.04740059
vn -0.00040001 0.93371874 0.35800719
vn -0.00030000 0.93368535 0.35809438
vn -0.00030000 0.97368530 0.22789656
vn -0.00039998 0.97366307 0.22799135
vn 0.66239885 0.74809871 0.03969993
vn 0.67116311 0.74045930 0.03549805
vn 0.66732453 0.74382734 0.03740137
vn 0.64300170 0.76430203 0.04890013
vn -0.00040002 0.99794322 0.06410278
vn -0.00040002 0.99794961 0.06400318
vn -0.00030001 0.99793685 0.06420237
vn -0.00040001 0.99793682 0.06420237
vn -0.00040002 0.99794322 0.06410278
vn -0.00030001 0.99794326 0.06410278
vn -0.00020001 0.99793688 0.06420237
vn -0.00039998 0.99795002 0.06399680
vn -0.00030001 0.99794326 0.06410278
vn 0.00000000 -0.11659756 0.99317924
vn 0.00000000 -0.11659756 0.99317924
vn 0.00000000 -0.11659756 0.99317924
vn 0.00000000 -0.11659756 0.99317924
vn 0.99999982 0.00060000 0.00000000
vn 0.99999982 0.00060000 0.00000000
vn 0.99999982 0.00060000 0.00000000
vn 0.99999982 0.00060000 0.00000000
vn 0.00000000 0.11659756 -0.99317924
vn 0.00000000 0.11659756 -0.99317924
vn 0.00000000 0.11659756 -0.99317924
vn 0.00000000 0.11659756 -0.99317924
vn -0.99999982 -0.00060000 0.00000000
vn -0.99999982 -0.00060000 0.00000000
vn -0.99999982 -0.00060000 0.00000000
vn -0.99999982 -0.00060000 0.00000000
vn -0.00040002 0.99794961 0.06400318
vn -0.00040001 0.99793682 0.06420237
vn -0.00050002 0.99793036 0.06430196
vn -0.00030001 0.99794326 0.06410278
vn -0.00030001 0.99793685 0.06420237
vn -0.00030001 0.99793685 0.06420237
vn -0.00029998 0.99795006 0.06399680
vn -0.00019999 0.99795008 0.06399680
vn 0.00000000 -0.06410278 0.99794330
vn 0.00000000 -0.06410278 0.99794330
vn 0.00000000 -0.06410278 0.99794330
vn 0.00000000 -0.06410278 0.99794330
vn 0.99999996 0.00030000 0.00000000
vn 0.99999996 0.00030000 0.00000000
vn 0.99999996 0.00030000 0.00000000
vn 0.99999996 0.00030000 0.00000000
vn 0.00000000 0.06410278 -0.99794330
vn 0.00000000 0.06410278 -0.99794330
vn 0.00000000 0.06410278 -0.99794330
vn 0.00000000 0.06410278 -0.99794330
vn -0.99999996 -0.00030000 0.00000000
vn -0.99999996 -0.00030000 0.00000000
vn -0.99999996 -0.00030000 0.00000000
vn -0.99999996 -0.00030000 0.00000000
vt 0.35898900 0.72791600
vt 0.29329800 0.72622900
vt 0.29349100 0.68896100
vt 0.35941100 0.68844200
vt 0.99700600 0.85518300
vt 0.00175900 0.84808600
vt 0.19455100 0.81531000
vt 0.45352900 0.81521200
vt 0.00175900 0.84808600
vt 0.00138900 0.25692900
vt 0.19250700 0.49865700
vt 0.19250700 0.49865700
vt 0.19455100 0.81531000
vt 0.00175900 0.84808600
vt 0.00138900 0.25692900
vt 0.00050000 0.00186100
vt 0.19250700 0.49865700
vt 0.00050000 0.00186100
vt 0.99890500 0.00050000
vt 0.45943100 0.49903900
vt 0.45943100 0.49903900
vt 0.19250700 0.49865700
vt 0.00050000 0.00186100
vt 0.99890500 0.00050000
vt 0.99950000 0.25790700
vt 0.45943100 0.49903900
vt 0.99950000 0.25790700
vt 0.99700600 0.85518300
vt 0.45352900 0.81521200
vt 0.45352900 0.81521200
vt 0.45943100 0.49903900
vt 0.99950000 0.25790700
vt 0.45352900 0.81521200
vt 0.45352900 0.81521200
vt 0.19455100 0.81531000
vt 0.26052600 0.74707100
vt 0.26052600 0.74707100
vt 0.39040600 0.74696800
vt 0.19455100 0.81531000
vt 0.19250700 0.49865700
vt 0.25949100 0.66279600
vt 0.26052600 0.74707100
vt 0.19250700 0.49865700
vt 0.45943100 0.49903900
vt 0.39205700 0.66285700
vt 0.25949100 0.66279600
vt 0.45943100 0.49903900
vt 0.45352900 0.81521200
vt 0.39040600 0.74696800
vt 0.39205700 0.66285700
vt 0.39040600 0.74696800
vt 0.39040600 0.74696800
vt 0.26052600 0.74707100
vt 0.28439900 0.73351700
vt 0.28439900 0.73351700
vt 0.28439900 0.73351700
vt 0.36694300 0.73419900
vt 0.28442600 0.67765100
vt 0.36775900 0.67792400
vt 0.36694300 0.73419900
vt 0.28439900 0.73351700
vt 0.28507400 0.73310700
vt 0.36643700 0.73396400
vt 0.28439900 0.73351700
vt 0.28442600 0.67765100
vt 0.28595600 0.68037100
vt 0.28507400 0.73310700
vt 0.28442600 0.67765100
vt 0.36775900 0.67792400
vt 0.36635600 0.68062200
vt 0.28595600 0.68037100
vt 0.36775900 0.67792400
vt 0.36694300 0.73419900
vt 0.36643700 0.73396400
vt 0.36635600 0.68062200
vt 0.36643700 0.73396400
vt 0.28507400 0.73310700
vt 0.29106800 0.72714700
vt 0.36031700 0.72937100
vt 0.28595600 0.68037100
vt 0.29176300 0.68699700
vt 0.36635600 0.68062200
vt 0.36120600 0.68752100
vt 0.36031700 0.72937100
vt 0.29106800 0.72714700
vt 0.29329800 0.72622900
vt 0.35898900 0.72791600
vt 0.29106800 0.72714700
vt 0.29176300 0.68699700
vt 0.29349100 0.68896100
vt 0.29329800 0.72622900
vt 0.29176300 0.68699700
vt 0.36120600 0.68752100
vt 0.35941100 0.68844200
vt 0.29349100 0.68896100
vt 0.36120600 0.68752100
vt 0.36031700 0.72937100
vt 0.35898900 0.72791600
vt 0.35941100 0.68844200
f 5/5/5 6/6/6 7/7/7
f 7/7/7 8/8/8 5/5/5
f 9/9/9 10/10/10 11/11/11
f 12/12/12 13/13/13 14/14/14
f 15/15/15 16/16/16 17/17/17
f 18/18/18 19/19/19 20/20/20
f 21/21/21 22/22/22 23/23/23
f 24/24/24 25/25/25 26/26/26
f 27/27/27 28/28/28 29/29/29
f 30/30/30 31/31/31 32/32/32
f 33/33/33 35/35/35 37/37/37
f 51/51/51 53/53/53 54/54/54
f 60/60/60 61/61/61 62/62/62
f 62/62/62 63/63/63 60/60/60
f 64/64/64 65/65/65 66/66/66
f 66/66/66 67/67/67 64/64/64
f 68/68/68 69/69/69 70/70/70
f 70/70/70 71/71/71 68/68/68
f 72/72/72 73/73/73 74/74/74
f 74/74/74 75/75/75 72/72/72
f 84/84/84 85/85/85 86/86/86
f 86/86/86 87/87/87 84/84/84
f 88/88/88 89/89/89 90/90/90
f 90/90/90 91/91/91 88/88/88
f 92/92/92 93/93/93 94/94/94
f 94/94/94 95/95/95 92/92/92
f 96/96/96 97/97/97 98/98/98
f 98/98/98 99/99/99 96/96/96
f 1/1/1 2/2/2 3/3/3
f 3/3/3 4/4/4 1/1/1
f 36/36/36 38/38/38 34/34/34
f 39/39/39 40/40/40 41/41/41
f 41/41/41 42/42/42 39/39/39
f 43/43/43 44/44/44 45/45/45
f 45/45/45 46/46/46 43/43/43
f 47/47/47 48/48/48 49/49/49
f 49/49/49 50/50/50 47/47/47
f 55/55/55 57/57/57 52/52/52
f 53/53/53 46/46/46 58/58/58
f 58/58/58 56/56/56 53/53/53
f 46/46/46 45/45/45 59/59/59
f 59/59/59 58/58/58 46/46/46
f 45/45/45 52/52/52 57/57/57
f 57/57/57 59/59/59 45/45/45
f 76/76/76 77/77/77 78/78/78
f 78/78/78 79/79/79 76/76/76
f 77/77/77 80/80/80 81/81/81
f 81/81/81 78/78/78 77/77/77
f 80/80/80 82/82/82 83/83/83
f 83/83/83 81/81/81 80/80/80
f 82/82/82 76/76/76 79/79/79
f 79/79/79 83/83/83 82/82/82